<svg width="12" height="12" viewBox="0 0 12 12" fill="none" xmlns="http://www.w3.org/2000/svg">
<g clip-path="url(#clip0_1_35)">
<path d="M11.5606 4.53446L7.76813 0.741464C7.29875 0.273458 6.66296 0.0106506 6.00013 0.0106506C5.3373 0.0106506 4.70151 0.273458 4.23213 0.741464L0.439628 4.53446C0.299841 4.67336 0.189013 4.83861 0.113569 5.02066C0.0381257 5.2027 -0.00043313 5.39791 0.00012811 5.59496V10.5035C0.00012811 10.9013 0.158163 11.2828 0.439468 11.5641C0.720773 11.8454 1.1023 12.0035 1.50013 12.0035H10.5001C10.898 12.0035 11.2795 11.8454 11.5608 11.5641C11.8421 11.2828 12.0001 10.9013 12.0001 10.5035V5.59496C12.0007 5.39791 11.9621 5.2027 11.8867 5.02066C11.8112 4.83861 11.7004 4.67336 11.5606 4.53446V4.53446ZM7.50013 11.0035H4.50013V9.03646C4.50013 8.63864 4.65816 8.25711 4.93947 7.9758C5.22077 7.6945 5.6023 7.53646 6.00013 7.53646C6.39795 7.53646 6.77948 7.6945 7.06079 7.9758C7.34209 8.25711 7.50013 8.63864 7.50013 9.03646V11.0035ZM11.0001 10.5035C11.0001 10.6361 10.9475 10.7632 10.8537 10.857C10.7599 10.9508 10.6327 11.0035 10.5001 11.0035H8.50013V9.03646C8.50013 8.37342 8.23674 7.73754 7.7679 7.2687C7.29906 6.79986 6.66317 6.53646 6.00013 6.53646C5.33709 6.53646 4.7012 6.79986 4.23236 7.2687C3.76352 7.73754 3.50013 8.37342 3.50013 9.03646V11.0035H1.50013C1.36752 11.0035 1.24034 10.9508 1.14657 10.857C1.05281 10.7632 1.00013 10.6361 1.00013 10.5035V5.59496C1.00059 5.46245 1.05322 5.33546 1.14663 5.24146L4.93913 1.44996C5.22098 1.16943 5.60246 1.01193 6.00013 1.01193C6.3978 1.01193 6.77928 1.16943 7.06113 1.44996L10.8536 5.24296C10.9467 5.33659 10.9993 5.46297 11.0001 5.59496V10.5035Z" fill="white"/>
</g>
<defs>
<clipPath id="clip0_1_35">
<rect width="12" height="12" fill="white"/>
</clipPath>
</defs>
</svg>
