<svg width="12" height="12" viewBox="0 0 12 12" fill="none" xmlns="http://www.w3.org/2000/svg">
<g clip-path="url(#clip0_2_75)">
<path d="M11.1466 6.35003L10.6036 6.89303L8.81107 5.10003C8.52529 4.82744 8.14551 4.67536 7.75057 4.67536C7.35563 4.67536 6.97586 4.82744 6.69007 5.10003L6.60357 5.18653C6.50839 5.27754 6.38177 5.32834 6.25007 5.32834C6.11838 5.32834 5.99176 5.27754 5.89657 5.18653L3.36007 2.64703C3.31395 2.59927 3.25878 2.56118 3.19777 2.53498C3.13677 2.50877 3.07116 2.49498 3.00477 2.4944C2.93838 2.49383 2.87254 2.50648 2.81109 2.53162C2.74965 2.55676 2.69382 2.59389 2.64687 2.64083C2.59993 2.68778 2.5628 2.7436 2.53766 2.80505C2.51252 2.8665 2.49987 2.93234 2.50045 2.99873C2.50102 3.06512 2.51482 3.13073 2.54102 3.19173C2.56723 3.25273 2.60532 3.30791 2.65307 3.35403L5.18907 5.89053C5.4748 6.16323 5.85459 6.31539 6.24957 6.31539C6.64455 6.31539 7.02435 6.16323 7.31007 5.89053L7.39657 5.80403C7.49176 5.71301 7.61838 5.66222 7.75007 5.66222C7.88177 5.66222 8.00839 5.71301 8.10357 5.80403L9.89657 7.60003L9.35357 8.14303C9.28367 8.21296 9.23606 8.30204 9.21678 8.39901C9.1975 8.49599 9.2074 8.59651 9.24523 8.68786C9.28307 8.77921 9.34714 8.85729 9.42934 8.91223C9.51155 8.96717 9.6082 8.99651 9.70707 8.99653H11.2501C11.449 8.99653 11.6398 8.91751 11.7804 8.77686C11.9211 8.63621 12.0001 8.44544 12.0001 8.24653V6.70003C11.9994 6.60145 11.9695 6.50528 11.9143 6.42361C11.8591 6.34194 11.781 6.27841 11.6898 6.24101C11.5986 6.20361 11.4984 6.194 11.4017 6.2134C11.305 6.2328 11.2163 6.28033 11.1466 6.35003V6.35003Z" fill="#262628"/>
<path d="M11.5 10.988H2.5C2.10218 10.988 1.72064 10.83 1.43934 10.5487C1.15804 10.2674 1 9.88582 1 9.488V0.5C1 0.367392 0.947322 0.240215 0.853553 0.146447C0.759785 0.0526784 0.632608 0 0.5 0C0.367392 0 0.240215 0.0526784 0.146447 0.146447C0.0526784 0.240215 0 0.367392 0 0.5L0 9.488C0.000793929 10.1508 0.264441 10.7862 0.73311 11.2549C1.20178 11.7236 1.8372 11.9872 2.5 11.988H11.5C11.6326 11.988 11.7598 11.9353 11.8536 11.8416C11.9473 11.7478 12 11.6206 12 11.488C12 11.3554 11.9473 11.2282 11.8536 11.1344C11.7598 11.0407 11.6326 10.988 11.5 10.988Z" fill="#262628"/>
</g>
<defs>
<clipPath id="clip0_2_75">
<rect width="12" height="12" fill="white"/>
</clipPath>
</defs>
</svg>
