<svg width="12" height="12" viewBox="0 0 12 12" fill="none" xmlns="http://www.w3.org/2000/svg">
<g clip-path="url(#clip0_2_87)">
<path d="M11.5734 4.7355L11.1799 4.2C10.9073 3.82896 10.5513 3.5271 10.1407 3.31868C9.73016 3.11026 9.27639 3.00111 8.81594 3H3.19144C2.74045 3.00118 2.29575 3.10588 1.89161 3.30604C1.48748 3.5062 1.13469 3.79648 0.860437 4.1545L0.449937 4.6915C0.116678 5.13115 -0.0400084 5.67959 0.0106979 6.22894C0.0614041 6.77829 0.315833 7.28878 0.723937 7.66L4.71894 11.5135C5.06982 11.8264 5.52379 11.9989 5.99394 11.998C6.47405 11.9971 6.93693 11.819 7.29394 11.498L11.2619 7.6815C11.6724 7.31805 11.932 6.81417 11.9896 6.26897C12.0473 5.72378 11.8988 5.17675 11.5734 4.7355V4.7355ZM10.3734 4.789L10.7669 5.326C10.8065 5.38095 10.8413 5.43916 10.8709 5.5H8.47544C8.43925 5.26056 8.37687 5.02582 8.28944 4.8L7.96944 4H8.81594C9.11916 4.00057 9.41802 4.07225 9.68852 4.20928C9.95901 4.34631 10.1936 4.54486 10.3734 4.789ZM5.99494 10.044L4.61044 6.909C4.56036 6.7764 4.52254 6.6395 4.49744 6.5H7.47344C7.45246 6.60994 7.42304 6.71809 7.38544 6.8235L5.99494 10.044ZM4.54994 5.5C4.57085 5.41036 4.59706 5.32204 4.62844 5.2355L5.12044 4H6.89244L7.36094 5.1715C7.40207 5.27847 7.43549 5.38825 7.46094 5.5H4.54994ZM1.65544 4.7605C1.83622 4.52467 2.06871 4.33348 2.335 4.20163C2.60129 4.06978 2.89429 4.0008 3.19144 4H4.04144L3.69994 4.8645C3.61755 5.06962 3.55607 5.28253 3.51644 5.5H1.12244C1.15673 5.42933 1.19811 5.36232 1.24594 5.3L1.65544 4.7605ZM1.40544 6.927C1.275 6.80868 1.17252 6.66283 1.10544 6.5H3.49144C3.5246 6.76939 3.58955 7.0339 3.68494 7.288L5.09844 10.488L1.40544 6.927ZM6.88544 10.507L8.31244 7.2C8.39526 6.97368 8.45294 6.73893 8.48444 6.5H10.8999C10.8292 6.67164 10.721 6.82537 10.5834 6.95L6.88544 10.507Z" fill="#262628"/>
<path d="M5.99994 2C6.13255 2 6.25973 1.94732 6.3535 1.85355C6.44727 1.75979 6.49994 1.63261 6.49994 1.5V0.5C6.49994 0.367392 6.44727 0.240215 6.3535 0.146447C6.25973 0.0526784 6.13255 0 5.99994 0C5.86733 0 5.74016 0.0526784 5.64639 0.146447C5.55262 0.240215 5.49994 0.367392 5.49994 0.5V1.5C5.49994 1.63261 5.55262 1.75979 5.64639 1.85355C5.74016 1.94732 5.86733 2 5.99994 2Z" fill="#262628"/>
<path d="M8.27646 1.94993C8.33549 1.97962 8.39982 1.9973 8.46573 2.00197C8.53164 2.00664 8.59782 1.9982 8.66045 1.97714C8.72308 1.95608 8.78091 1.92281 8.8306 1.87927C8.8803 1.83572 8.92087 1.78275 8.94997 1.72343L9.44997 0.723434C9.50924 0.60475 9.51895 0.467379 9.47694 0.341542C9.43493 0.215705 9.34465 0.11171 9.22597 0.0524342C9.10728 -0.00684165 8.96991 -0.0165426 8.84407 0.0254656C8.71824 0.0674737 8.61424 0.15775 8.55496 0.276434L8.05496 1.27643C8.0251 1.33517 8.00715 1.39922 8.00213 1.46491C7.9971 1.53061 8.00512 1.59664 8.0257 1.65923C8.04628 1.72182 8.07903 1.77972 8.12207 1.82961C8.1651 1.8795 8.21757 1.92039 8.27646 1.94993V1.94993Z" fill="#262628"/>
<path d="M3.05253 1.72343C3.1118 1.84245 3.21593 1.93304 3.342 1.97529C3.46807 2.01753 3.60576 2.00796 3.72478 1.94868C3.84379 1.88941 3.93439 1.78528 3.97663 1.65921C4.01887 1.53314 4.0093 1.39545 3.95003 1.27643L3.45003 0.276434C3.42068 0.217668 3.38004 0.165258 3.33043 0.122196C3.28083 0.079135 3.22323 0.0462659 3.16092 0.0254656C3.03508 -0.0165426 2.89771 -0.00684165 2.77903 0.0524342C2.66034 0.11171 2.57007 0.215705 2.52806 0.341542C2.48605 0.467379 2.49575 0.60475 2.55503 0.723434L3.05253 1.72343Z" fill="#262628"/>
</g>
<defs>
<clipPath id="clip0_2_87">
<rect width="12" height="12" fill="white"/>
</clipPath>
</defs>
</svg>
