<svg width="12" height="12" viewBox="0 0 12 12" fill="none" xmlns="http://www.w3.org/2000/svg">
<g clip-path="url(#clip0_2_81)">
<path d="M11.2499 1.98801H9.70692C9.60805 1.98803 9.5114 2.01736 9.42919 2.07231C9.34699 2.12725 9.28292 2.20533 9.24508 2.29668C9.20725 2.38803 9.19735 2.48855 9.21663 2.58552C9.23592 2.6825 9.28352 2.77158 9.35342 2.84151L9.89642 3.38451L8.10342 5.17701C8.00816 5.26806 7.88145 5.31887 7.74967 5.31887C7.6179 5.31887 7.49119 5.26806 7.39592 5.17701L7.31092 5.09151C7.02523 4.81854 6.64531 4.66622 6.25017 4.66622C5.85504 4.66622 5.47512 4.81854 5.18942 5.09151L2.63942 7.64151C2.54547 7.73573 2.49279 7.86341 2.49298 7.99646C2.49317 8.12952 2.54621 8.25705 2.64042 8.35101C2.73464 8.44496 2.86232 8.49764 2.99538 8.49745C3.12844 8.49726 3.25597 8.44423 3.34992 8.35001L5.89992 5.80001C5.99513 5.70884 6.12186 5.65796 6.25367 5.65796C6.38549 5.65796 6.51222 5.70884 6.60742 5.80001L6.69242 5.88551C6.97823 6.15824 7.35811 6.31041 7.75317 6.31041C8.14823 6.31041 8.52811 6.15824 8.81392 5.88551L10.6069 4.09251L11.1499 4.63551C11.2201 4.70428 11.309 4.75086 11.4054 4.76943C11.5019 4.788 11.6017 4.77773 11.6924 4.73992C11.7831 4.7021 11.8606 4.6384 11.9153 4.55679C11.97 4.47517 11.9994 4.37925 11.9999 4.28101V2.73801C11.9999 2.53909 11.9209 2.34833 11.7803 2.20768C11.6396 2.06702 11.4488 1.98801 11.2499 1.98801Z" fill="#262628"/>
<path d="M11.5 10.988H2.5C2.10218 10.988 1.72064 10.83 1.43934 10.5487C1.15804 10.2674 1 9.88582 1 9.488V0.5C1 0.367392 0.947322 0.240215 0.853553 0.146447C0.759785 0.0526784 0.632608 0 0.5 0C0.367392 0 0.240215 0.0526784 0.146447 0.146447C0.0526784 0.240215 0 0.367392 0 0.5L0 9.488C0.000793929 10.1508 0.264441 10.7862 0.73311 11.2549C1.20178 11.7236 1.8372 11.9872 2.5 11.988H11.5C11.6326 11.988 11.7598 11.9353 11.8536 11.8416C11.9473 11.7478 12 11.6206 12 11.488C12 11.3554 11.9473 11.2282 11.8536 11.1344C11.7598 11.0407 11.6326 10.988 11.5 10.988Z" fill="#262628"/>
</g>
<defs>
<clipPath id="clip0_2_81">
<rect width="12" height="12" fill="white"/>
</clipPath>
</defs>
</svg>
